<?xml version="1.0" encoding="UTF-8"?>
<svg xmlns="http://www.w3.org/2000/svg" xmlns:xlink="http://www.w3.org/1999/xlink" viewBox="0 0 128 128" width="128px" height="128px">
<g id="surface329837">
<path style=" stroke:none;fill-rule:nonzero;fill:rgb(0%,0%,0%);fill-opacity:1;" d="M 112.910156 34.882812 C 112.234375 32.003906 110.070312 29.695312 107.179688 28.777344 C 99.523438 26.347656 82.90625 24 64 24 C 45.09375 24 28.476562 26.347656 20.816406 28.777344 C 17.929688 29.695312 15.765625 32.003906 15.085938 34.882812 C 13.804688 40.320312 12 50.40625 12 64 C 12 77.59375 13.804688 87.679688 15.089844 93.117188 C 15.765625 95.996094 17.929688 98.304688 20.820312 99.222656 C 28.476562 101.652344 45.09375 104 64 104 C 82.90625 104 99.523438 101.652344 107.183594 99.222656 C 110.070312 98.304688 112.234375 95.996094 112.914062 93.117188 C 114.195312 87.679688 116 77.59375 116 64 C 116 50.40625 114.195312 40.320312 112.910156 34.882812 Z M 54 80 L 54 48 L 83.714844 64 Z M 54 80 "/>
</g>
</svg>
